<svg width="29" height="27" viewBox="0 0 29 27" fill="none" xmlns="http://www.w3.org/2000/svg">
<path d="M16.2998 0C19.495 0 22.5594 1.2693 24.8188 3.52868C27.0781 5.78806 28.3475 8.85243 28.3475 12.0477C28.3475 15.2429 27.0781 18.3073 24.8188 20.5667C22.5594 22.826 19.495 24.0953 16.2998 24.0953H15.5911V25.4985C15.5911 25.6866 15.554 25.8729 15.482 26.0467C15.41 26.2205 15.3044 26.3783 15.1713 26.5113C15.0382 26.6442 14.8802 26.7497 14.7064 26.8215C14.5326 26.8934 14.3462 26.9303 14.1581 26.9301C10.6714 26.9272 7.13931 25.7636 4.45905 23.381C1.75471 20.9743 0.00283474 17.3982 0 12.7691V12.0477C0 8.85243 1.2693 5.78806 3.52868 3.52868C5.78806 1.2693 8.85243 0 12.0477 0H16.2998ZM16.2998 2.83474H12.0477C9.60425 2.83474 7.2609 3.80539 5.53315 5.53315C3.80539 7.2609 2.83474 9.60425 2.83474 12.0477L2.83616 12.9902C2.89286 16.7349 4.31165 19.4563 6.34416 21.262C8.09887 22.8239 10.3709 23.7552 12.7564 24.0174V22.6921C12.7564 21.9012 13.397 21.2606 14.1879 21.2606H16.2998C18.7432 21.2606 21.0865 20.2899 22.8143 18.5622C24.5421 16.8344 25.5127 14.4911 25.5127 12.0477C25.5127 9.60425 24.5421 7.2609 22.8143 5.53315C21.0865 3.80539 18.7432 2.83474 16.2998 2.83474ZM9.21292 9.92161C9.77679 9.92161 10.3176 10.1456 10.7163 10.5443C11.115 10.943 11.339 11.4838 11.339 12.0477C11.339 12.6115 11.115 13.1523 10.7163 13.551C10.3176 13.9497 9.77679 14.1737 9.21292 14.1737C8.64906 14.1737 8.10828 13.9497 7.70957 13.551C7.31086 13.1523 7.08686 12.6115 7.08686 12.0477C7.08686 11.4838 7.31086 10.943 7.70957 10.5443C8.10828 10.1456 8.64906 9.92161 9.21292 9.92161ZM19.1345 9.92161C19.6984 9.92161 20.2392 10.1456 20.6379 10.5443C21.0366 10.943 21.2606 11.4838 21.2606 12.0477C21.2606 12.6115 21.0366 13.1523 20.6379 13.551C20.2392 13.9497 19.6984 14.1737 19.1345 14.1737C18.5707 14.1737 18.0299 13.9497 17.6312 13.551C17.2325 13.1523 17.0085 12.6115 17.0085 12.0477C17.0085 11.4838 17.2325 10.943 17.6312 10.5443C18.0299 10.1456 18.5707 9.92161 19.1345 9.92161Z" fill="white"/>
</svg>
