<svg width="23" height="23" viewBox="0 0 23 23" fill="none" xmlns="http://www.w3.org/2000/svg">
<path d="M6.66574 6.66504H5.71336C5.20818 6.66504 4.7237 6.86572 4.36649 7.22293C4.00927 7.58014 3.80859 8.06463 3.80859 8.5698V17.1412C3.80859 17.6464 4.00927 18.1309 4.36649 18.4881C4.7237 18.8453 5.20818 19.046 5.71336 19.046H14.2848C14.79 19.046 15.2744 18.8453 15.6317 18.4881C15.9889 18.1309 16.1895 17.6464 16.1895 17.1412V16.1888" stroke="white" stroke-width="1.71429" stroke-linecap="round" stroke-linejoin="round"/>
<path d="M15.237 4.76229L18.0941 7.61943M19.4132 6.27181C19.7883 5.89672 19.999 5.38798 19.999 4.85752C19.999 4.32706 19.7883 3.81833 19.4132 3.44324C19.0381 3.06815 18.5293 2.85742 17.9989 2.85742C17.4684 2.85742 16.9597 3.06815 16.5846 3.44324L8.57031 11.429V14.2861H11.4275L19.4132 6.27181Z" stroke="white" stroke-width="1.71429" stroke-linecap="round" stroke-linejoin="round"/>
</svg>
